<?xml version="1.0" encoding="UTF-8" standalone="no"?>
<svg width="1344px" height="364px" viewBox="0 0 1344 364" version="1.1" xmlns="http://www.w3.org/2000/svg" xmlns:xlink="http://www.w3.org/1999/xlink" xmlns:sketch="http://www.bohemiancoding.com/sketch/ns">
    <!-- Generator: Sketch 3.3.3 (12081) - http://www.bohemiancoding.com/sketch -->
    <title>software-niagara-inverse</title>
    <desc>Created with Sketch.</desc>
    <defs></defs>
    <g id="Page-1" stroke="none" stroke-width="1" fill="none" fill-rule="evenodd" sketch:type="MSPage">
        <g id="Logo" sketch:type="MSLayerGroup" transform="translate(22.000000, -9.000000)">
            <g id="Symbol" transform="translate(0.000000, 9.000000)" sketch:type="MSShapeGroup">
                <path d="M208.536585,93.8804259 L208.536585,93.8804259 C245.535865,117.958081 270,159.678632 270,207.113089 C270,281.67153 209.558441,342.113089 135,342.113089 C60.4415588,342.113089 0,281.67153 0,207.113089 C0,159.444504 24.7062325,117.54637 62.0121951,93.5251876" id="Oval-1" stroke="#FFFFFF" stroke-width="43"></path>
                <g id="Waterfall" transform="translate(101.000000, 0.000000)">
                    <path d="M81.1866617,0.301802722 L81.1866617,47.1449653 L33.44365,47.1449653 L34.0441926,280.605697 L0.264426793,247.537109 L0.264426793,46.8432972 C0.264426793,46.8432972 0.113620417,0.301802722 34.044191,0.301802722 C67.9747616,0.301802722 81.1866617,0.301802722 81.1866617,0.301802722 Z" id="Path-3" fill="#92E3F5"></path>
                    <path d="M114.186662,0.301802722 L114.186662,47.1449653 L66.44365,47.1449653 L66.44365,247.426462 L33.2644268,280.605685 L33.2644268,46.8432972 C33.2644268,46.8432972 33.1136204,0.301802722 67.044191,0.301802722 C100.974762,0.301802722 114.186662,0.301802722 114.186662,0.301802722 Z" id="Path-2" fill="#00AAC8"></path>
                </g>
            </g>
            <g id="Text" transform="translate(326.000000, 0.000000)" sketch:type="MSTextLayer">
                <text id="Niagara" font-family="Aller Display" font-size="164" font-weight="normal" line-spacing="117">
                    <tspan x="27.084" y="273" fill="#000000"></tspan>
                    <tspan x="0" y="331.476379" font-family="Aller" font-size="148" fill="#00AAC8">NIAGARA</tspan>
                </text>
                <text id="Software" font-family="Aller" font-size="198" font-weight="bold" line-spacing="198" fill="#FFFFFF">
                    <tspan x="4" y="185">SOFTWARE</tspan>
                </text>
            </g>
        </g>
    </g>
</svg>