<?xml version="1.0" encoding="UTF-8" standalone="no"?>
<svg width="1358px" height="368px" viewBox="0 0 1358 368" version="1.1" xmlns="http://www.w3.org/2000/svg" xmlns:xlink="http://www.w3.org/1999/xlink" xmlns:sketch="http://www.bohemiancoding.com/sketch/ns">
    <!-- Generator: Sketch 3.0.4 (8054) - http://www.bohemiancoding.com/sketch -->
    <title>Logo 2</title>
    <desc>Created with Sketch.</desc>
    <defs></defs>
    <g id="Page-1" stroke="none" stroke-width="1" fill="none" fill-rule="evenodd" sketch:type="MSPage">
        <g id="Logo" sketch:type="MSLayerGroup">
            <text id="Type" sketch:type="MSTextLayer" font-family="Aller" font-size="198" font-weight="bold" line-spacing="117">
                <tspan x="366" y="305" fill="#575757">SOFTWARE</tspan>
                <tspan x="1405.5" y="429.456024" font-family="Aller Display" font-size="164" font-weight="normal" fill="#000000"></tspan>
                <tspan x="378.714" y="488.932404" font-size="148" font-weight="normal" fill="#00AAC8">NIAGARA</tspan>
            </text>
            <g id="Symbol" sketch:type="MSShapeGroup">
                <path d="M77.4221127,63.1897718 C71.1896085,65.2917105 65.3748809,75.0612562 61.3969645,80.005281 C48.3414449,96.0736128 36.2450039,112.551687 25.6449263,130.218818 C13.0182303,151.308503 1.14072035,175.573693 0.136449617,200.517769 C-4.46712744,306.718395 108.270297,392.054293 209.024763,362.205358 C276.870281,342.119943 334.558605,276.216685 331.441348,202.526311 C330.525453,181.701753 322.947226,162.691912 313.716974,144.278608 C302.421941,121.91852 287.35788,101.479602 271.892111,82.0138225 C268.129108,77.3118269 260.011588,63.5713947 253.212675,63.5713947 C249.433604,63.5713947 247.187051,69.2224261 245.756969,71.9711151 C241.161426,79.6447478 228.494559,94.0650713 233.643456,103.103508 C238.109448,111.137674 245.76902,117.919514 251.204134,125.197464 C266.165759,144.66224 281.748024,167.860894 285.916752,192.483603 C298.221077,265.162677 220.971567,330.730509 151.781331,321.744294 C89.5115238,313.655898 27.6956472,246.714223 48.3414449,181.436625 C55.1313194,160.102902 68.4268597,140.870113 81.8579765,123.188923 C87.1454619,116.181121 95.8223611,109.137167 99.3433343,101.094966 C102.858282,93.0658219 89.1349222,76.7986446 85.2172621,69.9635779 C83.6726937,67.2681153 81.4100717,61.9284078 77.4221127,63.1897718" id="Cradle" fill="#575757"></path>
                <g id="Waterfall" transform="translate(134.000000, 0.000000)">
                    <path d="M81.1866617,0.301802722 L81.1866617,47.1449653 L33.44365,47.1449653 L34.0441926,280.605697 L0.264426793,247.537109 L0.264426793,46.8432972 C0.264426793,46.8432972 0.113620417,0.301802722 34.044191,0.301802722 C67.9747616,0.301802722 81.1866617,0.301802722 81.1866617,0.301802722 Z" id="Path-3" fill="#92E3F5"></path>
                    <path d="M114.186662,0.301802722 L114.186662,47.1449653 L66.44365,47.1449653 L66.44365,247.426462 L33.2644268,280.605685 L33.2644268,46.8432972 C33.2644268,46.8432972 33.1136204,0.301802722 67.044191,0.301802722 C100.974762,0.301802722 114.186662,0.301802722 114.186662,0.301802722 Z" id="Path-2" fill="#00AAC8"></path>
                </g>
            </g>
        </g>
    </g>
</svg>