<?xml version="1.0" encoding="UTF-8" standalone="no"?>
<svg width="1062px" height="298px" viewBox="0 0 1062 298" version="1.1" xmlns="http://www.w3.org/2000/svg" xmlns:xlink="http://www.w3.org/1999/xlink" xmlns:sketch="http://www.bohemiancoding.com/sketch/ns">
    <!-- Generator: Sketch 3.0.4 (8054) - http://www.bohemiancoding.com/sketch -->
    <title>devtricks 2</title>
    <desc>Created with Sketch.</desc>
    <defs></defs>
    <g id="Page-1" stroke="none" stroke-width="1" fill="none" fill-rule="evenodd" sketch:type="MSPage">
        <g id="Logo" sketch:type="MSLayerGroup">
            <path d="M446.886719,1 L412.808594,96 L454.856186,96 L321.808594,298 L367.808594,153 L321.769531,153 L367.769531,0 L446.886719,1 Z" id="Symbol" fill="#00AAC8" sketch:type="MSShapeGroup"></path>
            <path d="M-0.13,61.786 L-0.13,199 L41.054,199 C76.1,199 109.364,184.942 109.364,129.7 C109.364,73.072 74.714,61.786 38.084,61.786 L-0.13,61.786 Z M32.342,85.348 L42.638,85.348 C61.646,85.348 75.704,92.872 75.704,129.7 C75.704,166.132 62.636,175.438 43.034,175.438 L32.342,175.438 L32.342,85.348 Z M209.552,84.952 L212.918,61.786 L128.768,61.786 L128.768,199 L212.918,199 L212.918,175.636 L161.24,175.636 L161.24,140.59 L203.414,140.59 L203.414,117.82 L161.24,117.82 L161.24,84.952 L209.552,84.952 Z M297.464,199 L335.678,61.786 L302.414,61.786 L277.862,173.656 L251.726,61.786 L217.472,61.786 L257.072,199 L297.464,199 Z M530.312,86.734 L533.48,61.786 L437.230469,61.786 L428.54,86.734 L463.982,86.734 L463.982,199 L496.454,199 L496.454,86.734 L530.312,86.734 Z M591.692,146.53 L619.808,199 L656.438,199 L621.59,140.59 C639.41,132.472 647.924,121.582 647.924,103.564 C647.924,75.052 628.718,61.786 591.494,61.786 L546.548,61.786 L546.548,199 L579.02,199 L579.02,146.53 L591.692,146.53 Z M579.02,124.156 L579.02,84.556 L590.702,84.556 C606.74,84.556 614.462,90.298 614.462,103.564 C614.462,118.018 606.938,124.156 592.682,124.156 L579.02,124.156 Z M701.186,199 L701.186,61.786 L668.714,61.786 L668.714,199 L701.186,199 Z M782.366,58.42 C747.122,58.42 720.59,84.16 720.59,130.096 C720.59,177.022 745.736,202.366 783.356,202.366 C802.364,202.366 817.412,193.852 826.322,184.744 L811.67,165.736 C803.75,171.874 795.83,177.22 784.94,177.22 C766.724,177.22 754.646,163.162 754.646,130.096 C754.646,96.436 766.922,82.378 784.346,82.378 C793.85,82.378 801.572,85.942 808.898,92.278 L824.738,73.468 C813.452,63.964 800.978,58.42 782.366,58.42 Z M873.248,199 L873.248,61.786 L840.776,61.786 L840.776,199 L873.248,199 Z M908.294,123.364 L952.052,61.786 L917.798,61.786 L874.238,125.74 L917.996,199 L955.616,199 L908.294,123.364 Z M1010.264,58.42 C981.752,58.42 960.764,73.864 960.764,98.02 C960.764,118.414 972.05,131.086 1002.74,140.59 C1022.738,146.728 1027.886,151.282 1027.886,161.38 C1027.886,171.874 1019.57,178.21 1006.106,178.21 C992.444,178.21 981.356,173.26 971.654,164.548 L955.022,182.764 C966.308,193.654 983.336,202.366 1007.096,202.366 C1041.35,202.366 1061.546,184.546 1061.546,159.004 C1061.546,133.66 1046.696,122.968 1020.758,114.652 C999.374,107.92 994.226,104.356 994.226,95.644 C994.226,86.932 1001.354,82.18 1012.64,82.18 C1023.728,82.18 1033.232,85.942 1042.538,93.664 L1057.784,76.042 C1045.706,64.558 1031.252,58.42 1010.264,58.42 Z" id="Type" fill="#575757" sketch:type="MSShapeGroup"></path>
        </g>
    </g>
</svg>