<?xml version="1.0" encoding="UTF-8"?>
<svg width="1719px" height="1719px" viewBox="0 0 1719 1719" version="1.1" xmlns="http://www.w3.org/2000/svg" xmlns:xlink="http://www.w3.org/1999/xlink" style="background: #293051;">
    <!-- Generator: Sketch 46.2 (44496) - http://www.bohemiancoding.com/sketch -->
    <title>Custom Preset</title>
    <desc>Created with Sketch.</desc>
    <defs>
        <rect id="path-1" x="0" y="0" width="1719" height="657"></rect>
        <linearGradient x1="50%" y1="10.3116443%" x2="50%" y2="100%" id="linearGradient-3">
            <stop stop-color="#FFF1FE" stop-opacity="0.356091486" offset="0%"></stop>
            <stop stop-color="#D383CC" offset="100%"></stop>
        </linearGradient>
        <linearGradient x1="50%" y1="-9.66392739%" x2="50%" y2="108.511496%" id="linearGradient-4">
            <stop stop-color="#FFF1FE" stop-opacity="0.356091486" offset="0%"></stop>
            <stop stop-color="#D383CC" offset="100%"></stop>
        </linearGradient>
        <linearGradient x1="0.25781251%" y1="49.7500002%" x2="101.257813%" y2="49.7500002%" id="linearGradient-5">
            <stop stop-color="#3023AE" offset="0%"></stop>
            <stop stop-color="#53A0FE" offset="47.5247532%"></stop>
            <stop stop-color="#B4ED50" offset="100%"></stop>
        </linearGradient>
        <linearGradient x1="48.3256836%" y1="0%" x2="51.741289%" y2="100.999999%" id="linearGradient-6">
            <stop stop-color="#3023AE" offset="0%"></stop>
            <stop stop-color="#C96DD8" offset="100%"></stop>
        </linearGradient>
    </defs>
    <g id="Page-1" stroke="none" stroke-width="1" fill="none" fill-rule="evenodd">
        <g id="Custom-Preset">
            <g id="waves" transform="translate(0.000000, 535.000000)">
                <mask id="mask-2" fill="white">
                    <use xlink:href="#path-1"></use>
                </mask>
                <use id="Mask" fill="#293051" xlink:href="#path-1"></use>
                <g mask="url(#mask-2)" fill-rule="nonzero">
                    <g transform="translate(-270.000000, -30.000000)">
                        <path d="M222,353.201905 C92.0948702,383.762308 0,453.060031 0,453.060031 L0,141.779736 C0,141.779736 92.1247366,114.500483 206.354076,102.434903 C215.075271,90.6891258 224.927631,79.4492393 234,69.8440761 L234,52.3314555 C234,52.3314555 237.290316,55.2247544 243.474654,60.0896807 C255.409292,48.1324984 264.264345,40.4482544 264.264345,40.4482544 C264.264345,40.4482544 271.348536,-38.2643828 529.874825,23.9176561 L1989,23.9176672 L1989,32.3314444 C2015.00372,37.8682659 2027.41174,48.3169493 2033.31628,56.6357298 C2099.65713,36.0840094 2142.24547,52.1092106 2169.4137,78.2326655 C2224.36335,50.6305986 2258,23.8580421 2258,23.8580421 L2258,217.464609 C2293.7343,258.57961 2328.84745,316.331224 2258,328.500233 L2258,335.138337 C2258,335.138337 2229.31015,344.124577 2184.44594,354.062999 C2160.11845,394.471605 2108.925,436.469818 2108.925,436.469818 C2108.925,436.469818 2108.80655,437.714087 2108.05592,439.766158 C2123.28057,465.861195 2129.54619,492.806829 2110.57969,512.195679 C2083.91579,539.453328 1942.45663,594.501012 1847.45576,518.112018 C1800.24691,480.151981 1760.42445,450.052973 1725.68064,426.487233 C1720.49472,424.999058 1715.23861,423.471493 1709.91143,421.903767 C1626.27578,436.251035 1523.81671,431.131895 1379.4627,378.426324 C1360.69884,382.92725 1340.43127,387.704119 1318.25008,392.521085 C1185.50578,421.34843 1094.63561,406.574798 1007.96917,393.001993 C904.290022,424.285572 812.3972,464.561525 660.274389,427.361154 C602.360967,456.569939 548.799953,492.258848 409.097963,516.789061 C247.166258,545.22258 227.728869,500.927743 230.99246,471.162824 C225.153374,470.183529 222,469.532848 222,469.532848 L222,353.201905 Z" id="Combined-Shape" fill="#293051"></path>
                        <path d="M309.366861,68.9216678 C309.366861,68.9216678 317.833638,-35.0107395 670.356051,90.3256664 C1022.87846,215.662073 1100.41413,160.52153 1225.51806,121.094748 C1350.622,81.6679677 1445.6084,9.68362256 1669.38157,128.106326 C1893.15475,246.529032 2114,52.3314555 2114,52.3314555 L2114,363.611751 C2114,363.611751 1806.46412,470.031983 1653.06947,355.453186 C1499.67482,240.874389 1386.75387,116.200866 985.949967,287.312749 C585.146069,458.424632 630.261897,171.305835 367.979483,217.744191 C105.697069,264.182548 309.366861,68.9216678 309.366861,68.9216678 Z" id="Path-25-Copy" fill="#E8EDFA" style="mix-blend-mode: multiply;" transform="translate(1174.000000, 218.527647) scale(-1, 1) translate(-1174.000000, -218.527647) "></path>
                        <path d="M264.264345,40.4482544 C264.264345,40.4482544 273.618333,-63.4841529 663.080594,61.8522531 C1052.54286,187.188659 1138.20326,132.048116 1276.4165,92.6213354 C1414.62973,53.1945543 1519.56949,-18.7897908 1766.79124,99.6329134 C2014.01298,218.055618 2258,23.8580421 2258,23.8580421 L2258,335.138337 C2258,335.138337 1918.23829,441.558569 1748.76983,326.979773 C1579.30138,212.400976 1454.54775,87.7274516 1011.74472,258.839335 C568.941694,429.951219 618.785085,142.832422 329.018822,189.270777 C39.2525596,235.709135 264.264345,40.4482544 264.264345,40.4482544 Z" id="Path-25" fill-opacity="0.5" fill="url(#linearGradient-3)" style="mix-blend-mode: multiply;"></path>
                        <path d="M88.074996,137.25786 C88.074996,137.25786 97.9694163,33.325452 509.933108,158.661858 C921.8968,283.998264 1012.50629,228.857721 1158.70488,189.43094 C1304.90347,150.00416 1415.90619,78.0198141 1677.41134,196.442518 C1938.91648,314.865223 2197,120.667647 2197,120.667647 L2197,431.947942 C2197,431.947942 1837.60834,538.368174 1658.34874,423.789378 C1479.08914,309.210581 1347.12779,184.537057 878.741531,355.64894 C410.355273,526.760823 463.078398,239.642026 156.570704,286.080382 C-149.936989,332.518739 88.074996,137.25786 88.074996,137.25786 Z" id="Path-25" fill-opacity="0.829999983" fill="url(#linearGradient-4)" opacity="0.490729944" style="mix-blend-mode: multiply;" transform="translate(1098.500000, 286.863839) rotate(-180.000000) translate(-1098.500000, -286.863839) "></path>
                        <path d="M173.581065,109.311749 C397.714839,91.0679686 378.832822,21.7784059 631.944193,162.684241 C885.055565,303.590078 1339.22085,85.3474753 1610.50533,227.66971 C1881.7898,369.991943 1979.01241,213.646747 2003.90862,198.109546 C2028.80483,182.572344 2035.62376,265.814273 2035.62376,265.814273 L2030.74384,408.246782 C2030.74384,408.246782 2154.21624,521.01282 2101.3952,569.573001 C2073.51532,595.20393 1929.72049,641.74417 1838.36001,559.797116 C1573.90862,322.59375 1547.47698,366.688039 1315.6507,402.833763 C1083.82441,438.979486 983.376365,352.066943 808.330514,362.698361 C633.284662,373.329779 636.909191,445.735372 402.034225,472.7393 C167.159259,499.743229 234.623757,393.607913 234.623757,393.607913 L234.623757,214.615847" id="Path-27" fill-opacity="0.469999999" fill="url(#linearGradient-5)" style="mix-blend-mode: multiply;" transform="translate(1144.058725, 341.148249) rotate(-3.000000) translate(-1144.058725, -341.148249) "></path>
                        <path d="M305.264345,174.842766 C305.264345,174.842766 338.626033,-103.477741 664.080594,162.078668 C989.535156,427.635077 1560.56949,58.6578936 1807.79124,177.080597 C2055.01298,295.503303 2299,158.252553 2299,158.252553 L2299,469.532848 C2299,469.532848 2059.23829,519.006254 1889.76983,404.427457 C1720.30138,289.84866 1605.54775,199.343233 1162.74472,370.455116 C719.941694,541.566999 659.785085,277.226933 370.018822,323.665289 C80.2525598,370.103646 305.264345,174.842766 305.264345,174.842766 Z" id="Path-25" fill-opacity="0.50999999" fill="url(#linearGradient-6)" style="mix-blend-mode: multiply;" transform="translate(1260.500000, 263.715412) scale(-1, 1) translate(-1260.500000, -263.715412) "></path>
                    </g>
                </g>
            </g>
        </g>
    </g>
</svg>